<svg width="100" height="100" viewBox="0 0 100 100" fill="none" xmlns="http://www.w3.org/2000/svg">
<path d="M25.6416 74.3589H47.5967V58.6538H25.6416V74.3589ZM25.6416 53.8461H47.5967V25.641H25.6416V53.8461ZM52.4044 74.3589H74.3595V46.1538H52.4044V74.3589ZM52.4044 41.3461H74.3595V25.641H52.4044V41.3461ZM22.1161 85.4165C20.0113 85.4165 18.2298 84.6873 16.7715 83.229C15.3132 81.7707 14.584 79.9891 14.584 77.8844V22.1155C14.584 20.0107 15.3132 18.2292 16.7715 16.7709C18.2298 15.3125 20.0113 14.5834 22.1161 14.5834H77.885C79.9897 14.5834 81.7713 15.3125 83.2296 16.7709C84.688 18.2292 85.4171 20.0107 85.4171 22.1155V30.7693H92.7888V37.0191H85.4171V46.875H92.7888V53.1248H85.4171V62.9808H92.7888V69.2306H85.4171V77.8844C85.4171 79.9891 84.688 81.7707 83.2296 83.229C81.7713 84.6873 79.9897 85.4165 77.885 85.4165H22.1161ZM22.1161 79.1666H77.885C78.2056 79.1666 78.4994 79.0331 78.7666 78.766C79.0337 78.4988 79.1672 78.205 79.1672 77.8844V22.1155C79.1672 21.7949 79.0337 21.5011 78.7666 21.2339C78.4994 20.9668 78.2056 20.8333 77.885 20.8333H22.1161C21.7955 20.8333 21.5017 20.9668 21.2345 21.2339C20.9674 21.5011 20.8339 21.7949 20.8339 22.1155V77.8844C20.8339 78.205 20.9674 78.4988 21.2345 78.766C21.5017 79.0331 21.7955 79.1666 22.1161 79.1666Z" fill="#DDDDDD"/>
</svg>
